<svg width="250" height="250" viewBox="0 0 250 250" fill="none" xmlns="http://www.w3.org/2000/svg">
<g clip-path="url(#clip0_3184_327803)">
<path fill-rule="evenodd" clip-rule="evenodd" d="M15 90H38.5714V105.527H46.4286V97.7635H54.2857V90H77.8571V113.29H70V121.054H62.1429V128.817H70V136.581H77.8571V159.871H54.2857V152.108H46.4286V144.344H38.5714V159.871H15V90ZM172.143 90H195.714V105.527H203.571V97.7635H211.429V90H235V113.29H227.143V121.054H219.286V128.817H227.143V136.581H235V159.871H211.429V152.108H203.571V144.344H195.714V159.871H172.143V90ZM85.7143 90H109.286V159.871H85.7143V90ZM140.714 90H125V97.7635H117.143V152.108H125V159.871H140.714H164.286V136.581H140.714V113.29H164.286V90H140.714Z" fill="white"/>
</g>
<defs>
<clipPath id="clip0_3184_327803">
<rect width="220" height="69.8712" fill="white" transform="translate(15 90)"/>
</clipPath>
</defs>
</svg>
