<svg width="90" height="90" viewBox="0 0 90 90" fill="none" xmlns="http://www.w3.org/2000/svg">
<g clip-path="url(#clip0_408_530)">
<rect width="90" height="90" fill="#F3F3F3"/>
<path d="M29.6557 63.4766L22.2566 70.1973L29.6557 83.4652L58.2565 85.0422L58.5125 69.3294L52.9373 66.3977L55.1001 60.0054L64.3494 51.8538L65.2813 47.6963L67.7901 35.6539L63.7043 25.9768L69.5719 24.961L57.4346 18.4751H49.9298L39.9234 21.6253L28.7125 32.4655L24.3579 37.376L21.1151 46.6927L25.1398 43.3239L25.5699 46.6927L30.5159 50.0617L29.6557 63.4766Z" fill="white"/>
<path d="M45.3139 38.441C44.5882 39.0765 44.6546 40.3392 45.4622 41.2614C46.2698 42.1836 47.5127 42.416 48.2384 41.7805C48.964 41.145 49.4822 39.8805 48.6746 38.9583C47.867 38.0361 46.0396 37.8055 45.3139 38.441Z" fill="#FED1D0"/>
<path fill-rule="evenodd" clip-rule="evenodd" d="M63.3819 25.6664C63.722 25.43 64.1894 25.5142 64.4257 25.8544C64.8125 26.4111 65.0505 27.1674 65.2114 27.9346C65.3758 28.7188 65.4755 29.596 65.5426 30.4496C65.6058 31.2532 65.6415 32.0543 65.6726 32.7544C65.6746 32.7994 65.6766 32.844 65.6786 32.8881C65.7119 33.6351 65.741 34.2276 65.791 34.6104C65.837 34.9623 65.8222 35.3974 65.6202 35.8091L64.6698 37.7463C64.6412 37.8045 64.6332 37.8812 64.6599 37.9626C65.9211 41.8063 66.4891 48.2917 65.2029 53.1384C65.0189 53.832 64.8008 54.399 64.6048 54.8931L64.0835 56.4175C64.0777 57.4588 63.9956 58.6969 63.5949 59.8359C63.1696 61.0445 62.3749 62.1659 60.9425 62.8062C59.6929 63.3649 57.7761 63.5175 56.0305 63.4754C54.2696 63.433 52.4945 63.1866 51.474 62.8294C51.2859 62.7636 50.9638 62.6621 50.5363 62.5273C49.0338 62.0538 46.2284 61.1695 43.3541 59.9794C41.4982 59.2109 39.5787 58.3021 37.9099 57.2696C36.253 56.2443 34.7824 55.0604 33.889 53.7196L33.7747 53.548L33.354 45.3492L31.3605 38.2523C31.2485 37.8535 31.4809 37.4394 31.8797 37.3274C32.2785 37.2154 32.6926 37.4478 32.8046 37.8466L34.8434 45.1049L35.2512 53.0523C35.9841 54.0716 37.1936 55.0624 38.6992 55.994C40.2738 56.9683 42.1128 57.8419 43.928 58.5935C46.7225 59.7506 49.3791 60.5886 50.9092 61.0713C51.3777 61.219 51.7406 61.3335 51.9695 61.4136C52.7749 61.6955 54.3701 61.935 56.0665 61.9759C57.7782 62.0171 59.4059 61.8501 60.3303 61.4368C61.3041 61.0015 61.858 60.2529 62.1799 59.338C62.5101 58.3997 62.5838 57.3152 62.5838 56.2918V56.2087L62.602 56.1276C62.7348 55.5359 62.9448 55.008 63.147 54.4996L63.1579 54.4723C63.171 54.4393 63.1841 54.4064 63.1973 54.3733L63.7598 52.7285C64.9514 48.208 64.4183 42.0376 63.2346 38.4303C63.0924 37.997 63.1131 37.5138 63.3231 37.0856L64.2735 35.1484C64.3036 35.0871 64.3259 34.9753 64.3036 34.8047C64.2434 34.3437 64.2123 33.6766 64.1801 32.955C64.1782 32.9123 64.1763 32.8693 64.1743 32.826C64.143 32.1217 64.1084 31.3443 64.0473 30.5672C63.9823 29.741 63.8888 28.936 63.7433 28.2425C63.5944 27.5321 63.4058 27.0153 63.1939 26.7102C62.9575 26.3701 63.0417 25.9027 63.3819 25.6664Z" fill="black"/>
<path fill-rule="evenodd" clip-rule="evenodd" d="M25.0433 42.8726C25.4567 42.8464 25.8131 43.1602 25.8393 43.5736C25.9887 45.9267 27.0582 47.3057 28.305 48.114C29.5882 48.9459 31.1008 49.1952 32.0828 49.1644C32.4968 49.1515 32.8429 49.4766 32.8559 49.8906C32.8688 50.3046 32.5437 50.6507 32.1297 50.6637C30.9108 50.7019 29.0807 50.4045 27.489 49.3726C25.8609 48.3171 24.5231 46.5153 24.3424 43.6686C24.3161 43.2553 24.6299 42.8989 25.0433 42.8726Z" fill="black"/>
<path d="M30.0008 46.3022L30.0898 43.1652C30.0979 42.879 29.9481 42.6115 29.6997 42.4689C29.2045 42.1845 28.5819 42.5132 28.5374 43.0825L28.2926 46.2112C28.2412 46.8686 28.9213 47.3346 29.5158 47.0493C29.8045 46.9107 29.9917 46.6224 30.0008 46.3022Z" fill="black"/>
<path d="M28.3321 43.2337L31.193 44.8353C31.4267 44.9661 31.5729 45.2117 31.5764 45.4795C31.5838 46.0372 31.0013 46.4074 30.4996 46.1639L27.5497 44.7326C26.9646 44.4487 26.9055 43.6382 27.4432 43.2724C27.7082 43.0921 28.0524 43.0771 28.3321 43.2337Z" fill="black"/>
<path fill-rule="evenodd" clip-rule="evenodd" d="M30.4163 49.1672C30.8302 49.1495 31.18 49.4707 31.1976 49.8846L31.5767 58.7719L30.1765 63.7494C30.0643 64.1482 29.6501 64.3805 29.2514 64.2683C28.8526 64.1561 28.6203 63.742 28.7325 63.3432L30.0678 58.5964L29.699 49.9485C29.6813 49.5346 30.0025 49.1848 30.4163 49.1672Z" fill="black"/>
<path fill-rule="evenodd" clip-rule="evenodd" d="M55.4846 60.8249C55.8754 60.9623 56.0808 61.3905 55.9434 61.7812L53.647 68.3115L54.2236 70.2006C54.3446 70.5968 54.1215 71.0159 53.7253 71.1369C53.3291 71.2578 52.9099 71.0347 52.789 70.6385L52.0685 68.2784L54.5283 61.2836C54.6657 60.8929 55.0939 60.6875 55.4846 60.8249Z" fill="black"/>
<path fill-rule="evenodd" clip-rule="evenodd" d="M58.399 35.1633C58.7887 35.0228 59.2184 35.2249 59.3589 35.6146C59.991 37.3684 60.6934 38.6241 61.2744 39.6627C61.4213 39.9254 61.5605 40.1742 61.6888 40.4136C61.9973 40.9895 62.2721 41.5643 62.3769 42.1413C62.4897 42.7616 62.4037 43.3632 62.0506 43.9627C61.5033 44.8922 60.6891 45.3071 59.8109 45.4363C58.9841 45.558 58.0756 45.4304 57.2634 45.3C56.8544 45.2343 56.5761 44.8495 56.6418 44.4405C56.7075 44.0316 57.0922 43.7533 57.5012 43.8189C58.3349 43.9528 59.0256 44.0357 59.5925 43.9523C60.1079 43.8765 60.4818 43.6707 60.7581 43.2015C60.9205 42.9257 60.9524 42.6918 60.9011 42.4096C60.8419 42.084 60.6706 41.6894 60.3666 41.1221C60.2527 40.9094 60.1239 40.6795 59.9841 40.4299C59.4006 39.3881 58.626 38.0052 57.9477 36.1232C57.8073 35.7335 58.0093 35.3037 58.399 35.1633Z" fill="black"/>
<path fill-rule="evenodd" clip-rule="evenodd" d="M64.2702 26.673C61.0692 27.0985 56.7798 27.9131 51.1966 29.0454C45.7574 30.1484 39.8241 33.2275 34.3865 36.9591C28.9584 40.6843 24.0819 45.0199 20.7617 48.5717C19.5502 49.8677 19.2698 51.0447 19.4667 52.1028C19.6732 53.2121 20.4308 54.3361 21.5893 55.421C23.9045 57.589 27.5166 59.3189 29.9831 60.1879C30.3737 60.3256 30.5789 60.7538 30.4412 61.1445C30.3036 61.5352 29.8753 61.7403 29.4846 61.6027C26.9292 60.7023 23.096 58.887 20.564 56.5158C19.2989 55.3311 18.2824 53.937 17.9921 52.3774C17.6922 50.7667 18.1921 49.124 19.6659 47.5474C23.0589 43.9177 28.0179 39.5105 33.5378 35.7224C39.0481 31.9408 45.1751 28.736 50.8985 27.5753C56.4779 26.4438 60.8142 25.6192 64.0726 25.1861C65.7023 24.9695 67.0803 24.8482 68.2202 24.8381C69.3508 24.828 70.2983 24.9261 71.0406 25.1813C71.8073 25.4449 72.9389 26.1614 73.938 27.2625C74.9494 28.3772 75.8684 29.9333 76.1264 31.9012C76.6479 35.8772 74.4471 41.1462 66.0177 47.488C65.6866 47.737 65.2164 47.6706 64.9674 47.3396C64.7184 47.0086 64.7849 46.5384 65.1159 46.2894C73.3913 40.0635 75.0545 35.2628 74.6392 32.0963C74.4289 30.493 73.6793 29.2097 72.8271 28.2704C71.9624 27.3175 71.0353 26.7656 70.553 26.5998C70.0463 26.4257 69.296 26.3286 68.2336 26.338C67.1805 26.3474 65.8703 26.4603 64.2702 26.673Z" fill="black"/>
<path d="M24.5852 26.4356C24.2105 27.6221 24.2729 33.8761 24.5852 37.4669C27.1945 33.9415 29.2953 31.6564 32.7599 28.403C36.0402 24.6175 39.856 21.7857 45.2774 19.8128C50.8084 18.6613 55.4746 17.3566 59.179 19.1452C57.5575 18.3623 52.4592 14.0097 48.9073 11.0344C48.1704 10.4171 47.1822 10.1971 46.2512 10.4364L45.9119 10.5236C45.4696 10.4195 44.4682 10.0341 42.9695 10.2839C41.6088 10.5107 33.2414 15.7132 28.1091 18.9091C27.1676 19.4953 26.4473 20.3767 26.1106 21.4334C25.5364 23.2352 24.8625 25.5575 24.5852 26.4356Z" fill="#F3F3F3"/>
<path fill-rule="evenodd" clip-rule="evenodd" d="M45.4839 11.1869C44.9686 11.0464 44.2059 10.8384 43.0928 11.0239C43.0345 11.0336 42.8394 11.097 42.4649 11.2698C42.1161 11.4307 41.6729 11.6567 41.1513 11.9381C40.1092 12.5002 38.786 13.2653 37.3373 14.1277C34.4413 15.8517 31.0728 17.9473 28.5055 19.5459C27.7038 20.0451 27.1038 20.7868 26.8252 21.6612C26.5402 22.5556 26.2297 23.5813 25.9549 24.4967C25.8958 24.6933 25.8383 24.8853 25.783 25.0698C25.5824 25.7394 25.4107 26.3122 25.3004 26.6616C25.2404 26.8514 25.1751 27.3671 25.1322 28.1938C25.0912 28.9845 25.0737 29.9748 25.0776 31.0471C25.0827 32.4696 25.1254 34.0211 25.1984 35.4209C27.3213 32.708 29.2925 30.6318 32.2185 27.8827C35.5717 24.0212 39.4865 21.1221 45.021 19.1082L45.0717 19.0897L45.1246 19.0787C45.6925 18.9605 46.2553 18.8397 46.8118 18.7202C48.9297 18.2655 50.9571 17.8302 52.8339 17.6308C53.7753 17.5308 54.6964 17.4876 55.5917 17.5324C55.1764 17.2055 54.7413 16.8569 54.2947 16.4947C52.7809 15.2672 51.1172 13.8696 49.6149 12.6075C49.2043 12.2626 48.8058 11.9278 48.4257 11.6094C47.8759 11.1489 47.137 10.9832 46.438 11.1629L45.9198 11.2961L45.7401 11.2538C45.6625 11.2356 45.5772 11.2123 45.4839 11.1869ZM59.5051 18.47C59.1712 18.3088 58.6003 17.9303 57.8362 17.3637C57.0873 16.8085 56.1966 16.1058 55.2394 15.3296C53.7369 14.1111 52.0869 12.7251 50.5856 11.4639C50.1735 11.1177 49.7725 10.7809 49.3889 10.4596C48.4649 9.68554 47.2274 9.41125 46.0645 9.71016L45.9148 9.74866C45.9088 9.747 45.9028 9.74532 45.8967 9.74361C45.3916 9.60243 44.3105 9.30023 42.8462 9.54429C42.5642 9.59128 42.2002 9.74002 41.8367 9.90767C41.4474 10.0872 40.9735 10.3297 40.4392 10.6179C39.3693 11.195 38.0248 11.9728 36.57 12.8388C33.659 14.5717 30.2777 16.6754 27.7126 18.2726C26.6314 18.9458 25.7908 19.9668 25.396 21.2058C25.1068 22.1132 24.7932 23.1496 24.5182 24.0653C24.4578 24.2666 24.3993 24.4617 24.3435 24.6481C24.1436 25.3151 23.9767 25.872 23.87 26.2099C23.7426 26.6134 23.6753 27.3244 23.6342 28.1162C23.5913 28.9441 23.5737 29.9642 23.5776 31.0525C23.5852 33.1509 23.6731 35.5352 23.8214 37.336L18.4045 49.3281C18.234 49.7056 18.4018 50.1498 18.7793 50.3203C19.1568 50.4908 19.601 50.323 19.7715 49.9455L25.2356 37.849C27.7912 34.4029 29.8559 32.159 33.2733 28.9499L33.3014 28.9235L33.3267 28.8943C36.5183 25.2112 40.2159 22.4619 45.4835 20.5361C46.0592 20.4161 46.6216 20.2954 47.1716 20.1774C49.2778 19.7255 51.2023 19.3126 52.9924 19.1224C55.2503 18.8826 57.1811 19.0136 58.8529 19.8208L58.915 19.8508C60.0926 20.4193 62.7963 21.7247 65.5119 23.2044C66.87 23.9444 68.223 24.7236 69.3853 25.4723C70.559 26.2283 71.4954 26.9263 72.052 27.5002C72.3403 27.7976 72.8151 27.8049 73.1125 27.5165C73.4099 27.2282 73.4172 26.7534 73.1288 26.456C72.4476 25.7534 71.3909 24.9799 70.1976 24.2113C68.9928 23.4353 67.6049 22.6366 66.2296 21.8872C63.48 20.389 60.7484 19.0703 59.5692 18.501L59.5051 18.47Z" fill="black"/>
<path d="M62.7474 36.0832C62.9228 36.9413 62.584 37.7573 61.9909 37.9058C61.3978 38.0544 60.7748 37.4792 60.5995 36.6211C60.4242 35.763 60.7629 34.947 61.356 34.7984C61.9492 34.6499 62.5721 35.2251 62.7474 36.0832Z" fill="black"/>
<path d="M51.5541 36.3595C51.7295 37.2176 51.3907 38.0337 50.7976 38.1822C50.2045 38.3308 49.5815 37.7556 49.4062 36.8975C49.2309 36.0394 49.5696 35.2233 50.1627 35.0748C50.7559 34.9262 51.3788 35.5014 51.5541 36.3595Z" fill="black"/>
<path d="M52.6528 33.816L44.9992 35.1191C44.6487 35.1788 44.308 34.97 44.2021 34.6306C44.0875 34.2636 44.2858 33.8721 44.6494 33.7473L51.9924 31.2262C52.9583 30.8945 53.9256 31.7216 53.7481 32.7273C53.6496 33.2852 53.2112 33.7209 52.6528 33.816Z" fill="black"/>
<path d="M61.6103 33.9902L64.146 34.314C64.6263 34.3754 65.0514 34.0011 65.0514 33.5169C65.0514 33.2119 64.8787 32.9332 64.6057 32.7974L62.3168 31.6591C61.3497 31.1781 60.2746 32.0826 60.5831 33.1177C60.7227 33.5862 61.1254 33.9283 61.6103 33.9902Z" fill="black"/>
<path d="M45.2126 81.7625C34.1043 78.7816 20.8967 76.1851 27.6848 65.7388L14.9072 73.941C14.8372 73.9858 14.762 74.0218 14.6832 74.0481L4.41933 77.4694C2.94588 77.9605 1.78435 79.1085 1.27594 80.5761L-2.6986 92.049C-2.9261 92.7057 -2.43089 93.3885 -1.73601 93.3762L79.6513 91.9368C80.2752 91.9257 80.7367 91.3523 80.6142 90.7405L78.9948 82.6581C78.2077 78.7295 75.1517 75.65 71.2292 74.8329L67.3925 74.0336C67.3127 74.0169 67.2352 73.9906 67.1618 73.9552L55.4524 68.3046L56.8345 71.3086C58.2155 74.3102 57.7611 77.792 55.1332 79.7946C54.9125 79.9628 54.6913 80.1286 54.4714 80.2911C51.8286 82.2444 48.3865 82.6143 45.2126 81.7625Z" fill="black"/>
<path fill-rule="evenodd" clip-rule="evenodd" d="M28.2166 65.2099C27.9674 64.9593 27.5771 64.9167 27.2797 65.1076L14.502 73.3098C14.4845 73.321 14.4657 73.33 14.446 73.3366L4.18216 76.7579C2.48769 77.3227 1.15193 78.6429 0.567261 80.3306L-3.40728 91.8035C-3.80541 92.9527 -2.93877 94.1476 -1.72275 94.1261L79.6646 92.6867C80.7564 92.6674 81.5641 91.6638 81.3495 90.5932L79.7302 82.5108C78.884 78.2876 75.5988 74.9771 71.3822 74.0986L67.5455 73.2993C67.5255 73.2952 67.5061 73.2886 67.4878 73.2798L55.7784 67.6292C55.4934 67.4917 55.1528 67.5478 54.927 67.7695C54.7012 67.9912 54.6388 68.3307 54.7711 68.6181L56.1532 71.6221C57.4241 74.3846 56.9628 77.4574 54.6786 79.1981C54.4611 79.3639 54.2428 79.5275 54.0256 79.688C51.6034 81.4782 48.4086 81.8436 45.407 81.0382C44.6576 80.8371 43.9023 80.6386 43.1465 80.4401C41.0815 79.8975 39.0128 79.354 37.0528 78.7532C34.3746 77.9323 31.966 77.0233 30.1261 75.9087C28.2819 74.7914 27.1102 73.5294 26.7236 72.0417C26.3398 70.5651 26.6782 68.6644 28.3137 66.1474C28.5063 65.8511 28.4658 65.4605 28.2166 65.2099ZM25.6987 67.9049C25.048 69.5565 24.9172 71.0547 25.2718 72.419C25.7995 74.4493 27.3512 75.9814 29.3489 77.1916C31.351 78.4045 33.9028 79.3566 36.6132 80.1873C38.6047 80.7978 40.7178 81.3529 42.7923 81.898C43.5418 82.0949 44.2863 82.2905 45.0182 82.4869C48.3645 83.3849 52.0538 83.0105 54.9172 80.8943C55.1398 80.7297 55.364 80.5617 55.5878 80.3912C58.5594 78.1265 59.0068 74.2358 57.5159 70.9952L57.0061 69.8872L66.8359 74.6307C66.9643 74.6927 67.0999 74.7387 67.2395 74.7678L67.3925 74.0336L67.2395 74.7678L71.0762 75.5671C74.7045 76.323 77.5313 79.1715 78.2594 82.8055L79.8788 90.8878C79.9094 91.0408 79.794 91.1841 79.6381 91.1869L-1.74927 92.6263C-1.923 92.6294 -2.04679 92.4587 -1.98992 92.2945L1.98462 80.8216C2.41676 79.5742 3.40408 78.5984 4.65649 78.1809L14.9203 74.7596L14.6839 74.0504L14.9204 74.7596C15.0583 74.7136 15.1899 74.6507 15.3123 74.5721L25.6987 67.9049Z" fill="black"/>
<path d="M37.0529 42.8209L35.0885 39.6368L35.5027 35.4756L32.832 38.0241L34.26 45.3883L34.6176 52.2238L35.6438 54.0161L42.4902 57.2029L50.2173 61.0402L57.8919 62.4594L62.2022 60.2517L62.8856 56.2567L63.7536 52.7287C63.9454 51.9492 63.8982 51.13 63.6182 50.3777L62.8856 48.4095L60.559 46.9692L59.5171 47.3743L58.1029 46.9692L54.5226 48.1675C54.0568 48.3234 53.6647 48.6452 53.421 49.0715L51.3344 52.7219L47.6293 46.609C47.4976 46.3917 47.2881 46.2327 47.0433 46.1643L38.2166 43.6969C37.7324 43.5615 37.3169 43.2488 37.0529 42.8209Z" fill="black"/>
<path fill-rule="evenodd" clip-rule="evenodd" d="M35.8317 34.8016C36.1136 34.9392 36.2801 35.2377 36.2491 35.5499L35.8599 39.4588L37.6912 42.4271C37.8562 42.6945 38.1159 42.89 38.4185 42.9746L47.2453 45.442C47.6735 45.5617 48.0402 45.84 48.2707 46.2203L51.3155 51.2437L52.7699 48.6994C53.105 48.1131 53.6442 47.6706 54.2845 47.4563L57.8649 46.258C58.0087 46.2098 58.1637 46.2064 58.3095 46.2482L59.4808 46.5838L60.2872 46.2702C60.5067 46.1848 60.7536 46.2075 60.9538 46.3315L63.2804 47.7718C63.422 47.8595 63.5304 47.9918 63.5885 48.1479L64.3211 50.1161C64.6536 51.0095 64.7096 51.9823 64.4819 52.9079L63.6203 56.4098L62.9415 60.3782C62.9017 60.611 62.7544 60.8115 62.5441 60.9192L58.2338 63.127C58.0864 63.2025 57.9183 63.2271 57.7555 63.197L50.0809 61.7777C50.0125 61.765 49.9461 61.7429 49.8837 61.7119L42.1651 57.8789L35.3273 54.6961C35.1868 54.6307 35.07 54.5233 34.9929 54.3888L33.9667 52.5965C33.9084 52.4945 33.8748 52.3803 33.8686 52.263L33.5138 45.4797L32.0958 38.1669C32.0471 37.9161 32.1295 37.6578 32.3143 37.4815L34.985 34.933C35.2119 34.7164 35.5497 34.664 35.8317 34.8016ZM33.6464 38.2837L34.9963 45.2455C35.003 45.2797 35.0072 45.3143 35.009 45.3491L35.3572 52.0062L36.1763 53.4367L42.8067 56.523L42.8238 56.5312L50.4569 60.3218L57.7772 61.6755L61.5262 59.7553L62.1463 56.1303C62.1493 56.1126 62.153 56.095 62.1573 56.0776L63.0253 52.5495C63.1812 51.9162 63.1428 51.2506 62.9153 50.6393L62.2723 48.912L60.4823 47.8038L59.789 48.0734C59.6362 48.1328 59.4682 48.1405 59.3106 48.0953L58.1202 47.7543L54.7606 48.8787C54.4695 48.9761 54.2245 49.1773 54.0721 49.4438L51.9855 53.0941C51.8537 53.3247 51.6097 53.4684 51.344 53.4718C51.0784 53.4752 50.8307 53.3378 50.693 53.1106L46.9879 46.9978C46.955 46.9435 46.9026 46.9037 46.8414 46.8866L38.0147 44.4192C37.3489 44.2331 36.7776 43.803 36.4146 43.2147L34.4502 40.0306C34.3639 39.8906 34.3259 39.7262 34.3422 39.5625L34.5559 37.4158L33.6464 38.2837Z" fill="black"/>
<path d="M30.4012 49.7976L30.176 60.861C27.5263 59.6346 21.5453 56.5908 20.5467 55.9076C19.2985 55.0535 18.4444 52.0972 19.1671 49.7976C19.7452 47.958 23.1746 45.0456 24.817 43.8193C25.29 47.656 28.7368 49.4035 30.4012 49.7976Z" fill="black"/>
<path d="M73.6949 38.104C72.3284 41.0471 67.5633 45.2431 65.3515 46.9731L63.9719 38.104L64.9573 34.8192L63.9719 26.3308L69.8188 25.6216L74.1548 28.2496C76.914 31.6658 75.403 34.4251 73.6949 38.104Z" fill="black"/>
<path opacity="0.2" d="M36.9206 71.2236L53.1635 63.8967C54.4259 63.3273 54.6658 61.6777 53.7045 60.7635C53.5706 60.6362 53.4014 60.5549 53.2275 60.4926L33.7787 53.5371L36.8966 61.6818C37.1071 62.2319 37.1511 62.8317 37.0231 63.4066L35.5333 70.0946C35.3542 70.8987 36.1697 71.5623 36.9206 71.2236Z" fill="black"/>
<path d="M58.9706 48.7705C58.3415 48.6819 56.5158 49.5453 55.1881 50.2572C54.9189 50.4015 55.0206 50.8492 55.3216 50.901C56.7327 51.1438 58.2866 51.7185 58.9706 51.7557C59.8395 51.8029 61.44 51.3275 61.44 50.045C61.44 48.7705 59.9766 48.9121 58.9706 48.7705Z" fill="#FED1D0"/>
<path opacity="0.2" d="M63.8415 25.7114L64.9861 28.6924C60.0998 27.5364 42.048 34.3474 35.4212 43.0307C28.4297 47.7395 27.4392 45.4819 25.1709 47.3531L24.1287 43.8542L31.2515 38.4112L44.7246 29.9497L63.8415 25.7114Z" fill="black"/>
</g>
<defs>
<clipPath id="clip0_408_530">
<rect width="90" height="90" fill="white"/>
</clipPath>
</defs>
</svg>
